<?xml version="1.0" encoding="UTF-8" standalone="no"?>
<!DOCTYPE svg PUBLIC "-//W3C//DTD SVG 1.1//EN" "http://www.w3.org/Graphics/SVG/1.1/DTD/svg11.dtd">
<svg width="100%" height="100%" viewBox="0 0 4733 704" version="1.1" xmlns="http://www.w3.org/2000/svg" xmlns:xlink="http://www.w3.org/1999/xlink" xml:space="preserve" xmlns:serif="http://www.serif.com/" style="fill-rule:evenodd;clip-rule:evenodd;stroke-linejoin:round;stroke-miterlimit:2;">
    <g transform="matrix(1.18904,1.18904,-1.18904,1.18904,7571.71,-12682.4)">
        <path d="M2710.65,8516.88C2591.65,8470.15 2495.68,8466.5 2445.17,8516.54L2444.83,8516.88L2445.17,8516.54C2495.2,8466.05 2491.56,8370.1 2444.83,8251.07C2398.01,8370.36 2394.45,8466.47 2444.83,8516.89L2444.99,8517.04L2444.83,8517.2C2394.45,8567.62 2398.01,8663.73 2444.83,8783.02C2491.56,8663.98 2495.2,8568.04 2445.17,8517.55L2444.83,8517.21L2445.17,8517.55C2495.68,8567.59 2591.65,8563.94 2710.65,8517.21L2710.65,8516.88ZM2444.76,8516.95L2444.67,8517.04L2444.76,8517.14L2444.67,8517.04L2444.76,8516.95ZM2444.83,8516.89C2394.4,8466.5 2298.27,8470.06 2178.99,8516.9L2178.99,8517.19C2298.27,8564.02 2394.4,8567.59 2444.83,8517.2L2444.99,8517.04L2444.83,8516.89ZM2734.26,8517.07C2734.27,8517.13 2734.26,8517.17 2734.23,8517.2C2737.73,8521.93 2449.56,8810.1 2444.83,8806.6C2440.1,8810.1 2151.93,8521.94 2155.43,8517.2C2155.39,8517.16 2155.36,8517.1 2155.34,8517.04L2155.36,8517C2155.38,8516.96 2155.4,8516.92 2155.43,8516.88C2151.93,8512.15 2440.1,8223.98 2444.83,8227.49C2449.56,8223.99 2737.73,8512.15 2734.23,8516.88C2734.26,8516.92 2734.27,8516.97 2734.26,8517.04L2734.26,8517.07Z" style="fill:rgb(57,105,160);"/>
    </g>
    <g transform="matrix(0.875256,0,0,0.875256,28.7402,52.6322)">
        <g transform="matrix(0.91,0,0,1,76.69,0)">
            <text x="852.111px" y="616.39px" style="font-family:'CocoGothic', 'Coco Gothic';font-size:742.623px;fill:rgb(52,63,82);">G<tspan x="1361.55px 1830.15px 2358.89px 2796.3px " y="616.39px 616.39px 616.39px 616.39px ">RUPO</tspan></text>
        </g>
        <g transform="matrix(0.91,0,0,1,285.366,0)">
            <text x="3170.74px" y="616.39px" style="font-family:'CocoGothic-Bold', 'Coco Gothic';font-weight:700;font-size:742.623px;fill:rgb(52,63,82);">A<tspan x="3672.75px 4196.3px 4854.26px 5054.03px " y="616.39px 616.39px 616.39px 616.39px ">DMIN</tspan></text>
        </g>
    </g>
</svg>
