<?xml version="1.0" encoding="UTF-8" standalone="no"?>
<!DOCTYPE svg PUBLIC "-//W3C//DTD SVG 1.1//EN" "http://www.w3.org/Graphics/SVG/1.1/DTD/svg11.dtd">
<svg width="100%" height="100%" viewBox="0 0 6711 996" version="1.1" xmlns="http://www.w3.org/2000/svg" xmlns:xlink="http://www.w3.org/1999/xlink" xml:space="preserve" xmlns:serif="http://www.serif.com/" style="fill-rule:evenodd;clip-rule:evenodd;stroke-linejoin:round;stroke-miterlimit:2;">
    <g transform="matrix(1.64039,0,0,1.64039,-1088.88,-12951.9)">
        <path d="M1471.11,8502.24C1426.74,8502.24 1392.89,8489.6 1369.58,8464.33C1346.27,8439.05 1334.62,8403.39 1334.62,8357.33L1334.62,8040.53C1334.62,7994.47 1346.27,7958.81 1369.58,7933.53C1392.89,7908.26 1426.74,7895.62 1471.11,7895.62C1515.48,7895.62 1549.33,7908.26 1572.63,7933.53C1595.94,7958.81 1607.6,7994.47 1607.6,8040.53L1607.6,8102.88L1519.98,8102.88L1519.98,8034.64C1519.98,7998.12 1504.53,7979.87 1473.64,7979.87C1442.74,7979.87 1427.3,7998.12 1427.3,8034.64L1427.3,8364.07C1427.3,8400.01 1442.74,8417.99 1473.64,8417.99C1504.53,8417.99 1519.98,8400.01 1519.98,8364.07L1519.98,8273.92L1607.6,8273.92L1607.6,8357.33C1607.6,8403.39 1595.94,8439.05 1572.63,8464.33C1549.33,8489.6 1515.48,8502.24 1471.11,8502.24Z" style="fill:white;fill-rule:nonzero;"/>
        <path d="M1798.86,8502.24C1753.36,8502.24 1718.53,8489.32 1694.38,8463.49C1670.23,8437.65 1658.15,8401.14 1658.15,8353.96L1658.15,8043.9C1658.15,7996.72 1670.23,7960.21 1694.38,7934.37C1718.53,7908.54 1753.36,7895.62 1798.86,7895.62C1844.35,7895.62 1879.18,7908.54 1903.33,7934.37C1927.48,7960.21 1939.56,7996.72 1939.56,8043.9L1939.56,8353.96C1939.56,8401.14 1927.48,8437.65 1903.33,8463.49C1879.18,8489.32 1844.35,8502.24 1798.86,8502.24ZM1798.86,8417.99C1830.87,8417.99 1846.88,8398.61 1846.88,8359.85L1846.88,8038.01C1846.88,7999.25 1830.87,7979.87 1798.86,7979.87C1766.84,7979.87 1750.83,7999.25 1750.83,8038.01L1750.83,8359.85C1750.83,8398.61 1766.84,8417.99 1798.86,8417.99Z" style="fill:white;fill-rule:nonzero;"/>
        <path d="M2001.91,7904.04L2138.4,7904.04C2184.46,7904.04 2219,7916.4 2242.03,7941.11C2265.06,7965.83 2276.57,8002.06 2276.57,8049.8L2276.57,8107.94C2276.57,8155.68 2265.06,8191.91 2242.03,8216.62C2219,8241.34 2184.46,8253.69 2138.4,8253.69L2094.59,8253.69L2094.59,8493.82L2001.91,8493.82L2001.91,7904.04ZM2138.4,8169.44C2153.56,8169.44 2164.94,8165.23 2172.52,8156.8C2180.1,8148.38 2183.89,8134.05 2183.89,8113.83L2183.89,8043.9C2183.89,8023.68 2180.1,8009.36 2172.52,8000.93C2164.94,7992.51 2153.56,7988.3 2138.4,7988.3L2094.59,7988.3L2094.59,8169.44L2138.4,8169.44Z" style="fill:white;fill-rule:nonzero;"/>
        <path d="M2327.12,7904.04L2464.46,7904.04C2512.2,7904.04 2547.03,7915.14 2568.93,7937.32C2590.84,7959.51 2601.79,7993.63 2601.79,8039.69L2601.79,8075.92C2601.79,8137.14 2581.57,8175.9 2541.13,8192.19L2541.13,8193.87C2563.6,8200.61 2579.46,8214.38 2588.73,8235.16C2598,8255.94 2602.63,8283.75 2602.63,8318.57L2602.63,8422.2C2602.63,8439.05 2603.2,8452.67 2604.32,8463.06C2605.44,8473.45 2608.25,8483.71 2612.74,8493.82L2518.38,8493.82C2515.01,8484.27 2512.76,8475.28 2511.64,8466.86C2510.52,8458.43 2509.95,8443.26 2509.95,8421.36L2509.95,8313.51C2509.95,8286.55 2505.6,8267.74 2496.9,8257.06C2488.19,8246.39 2473.16,8241.06 2451.82,8241.06L2419.8,8241.06L2419.8,8493.82L2327.12,8493.82L2327.12,7904.04ZM2453.51,8156.8C2472.04,8156.8 2485.94,8152.03 2495.21,8142.48C2504.48,8132.93 2509.11,8116.92 2509.11,8094.45L2509.11,8048.96C2509.11,8027.61 2505.32,8012.17 2497.74,8002.62C2490.16,7993.07 2478.22,7988.3 2461.93,7988.3L2419.8,7988.3L2419.8,8156.8L2453.51,8156.8Z" style="fill:white;fill-rule:nonzero;"/>
        <path d="M2800.63,8502.24C2755.13,8502.24 2720.31,8489.32 2696.16,8463.49C2672,8437.65 2659.93,8401.14 2659.93,8353.96L2659.93,8043.9C2659.93,7996.72 2672,7960.21 2696.16,7934.37C2720.31,7908.54 2755.13,7895.62 2800.63,7895.62C2846.13,7895.62 2880.95,7908.54 2905.1,7934.37C2929.26,7960.21 2941.33,7996.72 2941.33,8043.9L2941.33,8353.96C2941.33,8401.14 2929.26,8437.65 2905.1,8463.49C2880.95,8489.32 2846.13,8502.24 2800.63,8502.24ZM2800.63,8417.99C2832.65,8417.99 2848.65,8398.61 2848.65,8359.85L2848.65,8038.01C2848.65,7999.25 2832.65,7979.87 2800.63,7979.87C2768.61,7979.87 2752.61,7999.25 2752.61,8038.01L2752.61,8359.85C2752.61,8398.61 2768.61,8417.99 2800.63,8417.99Z" style="fill:white;fill-rule:nonzero;"/>
        <path d="M3003.68,7904.04L3140.17,7904.04C3186.23,7904.04 3220.77,7916.4 3243.8,7941.11C3266.83,7965.83 3278.35,8002.06 3278.35,8049.8L3278.35,8107.94C3278.35,8155.68 3266.83,8191.91 3243.8,8216.62C3220.77,8241.34 3186.23,8253.69 3140.17,8253.69L3096.36,8253.69L3096.36,8493.82L3003.68,8493.82L3003.68,7904.04ZM3140.17,8169.44C3155.34,8169.44 3166.71,8165.23 3174.29,8156.8C3181.88,8148.38 3185.67,8134.05 3185.67,8113.83L3185.67,8043.9C3185.67,8023.68 3181.88,8009.36 3174.29,8000.93C3166.71,7992.51 3155.34,7988.3 3140.17,7988.3L3096.36,7988.3L3096.36,8169.44L3140.17,8169.44Z" style="fill:white;fill-rule:nonzero;"/>
        <rect x="3328.9" y="7904.04" width="92.679" height="589.774" style="fill:white;"/>
        <path d="M3490.66,7904.04L3743.43,7904.04L3743.43,7988.3L3583.34,7988.3L3583.34,8144.16L3710.57,8144.16L3710.57,8228.42L3583.34,8228.42L3583.34,8409.56L3743.43,8409.56L3743.43,8493.82L3490.66,8493.82L3490.66,7904.04Z" style="fill:white;fill-rule:nonzero;"/>
        <path d="M3796.51,7904.04L3938.05,7904.04C3984.11,7904.04 4018.65,7916.4 4041.68,7941.11C4064.71,7965.83 4076.23,8002.06 4076.23,8049.8L4076.23,8348.06C4076.23,8395.8 4064.71,8432.03 4041.68,8456.75C4018.65,8481.46 3984.11,8493.82 3938.05,8493.82L3796.51,8493.82L3796.51,7904.04ZM3936.37,8409.56C3951.53,8409.56 3963.19,8405.07 3971.33,8396.08C3979.48,8387.1 3983.55,8372.49 3983.55,8352.27L3983.55,8045.59C3983.55,8025.37 3979.48,8010.76 3971.33,8001.78C3963.19,7992.79 3951.53,7988.3 3936.37,7988.3L3889.18,7988.3L3889.18,8409.56L3936.37,8409.56Z" style="fill:white;fill-rule:nonzero;"/>
        <path d="M4208.51,7904.04L4334.04,7904.04L4430.09,8493.82L4337.41,8493.82L4320.56,8376.7L4320.56,8378.39L4215.24,8378.39L4198.4,8493.82L4112.46,8493.82L4208.51,7904.04ZM4309.61,8298.35L4268.32,8006.83L4266.64,8006.83L4226.2,8298.35L4309.61,8298.35Z" style="fill:white;fill-rule:nonzero;"/>
        <path d="M4474.75,7904.04L4616.29,7904.04C4662.35,7904.04 4696.89,7916.4 4719.92,7941.11C4742.95,7965.83 4754.47,8002.06 4754.47,8049.8L4754.47,8348.06C4754.47,8395.8 4742.95,8432.03 4719.92,8456.75C4696.89,8481.46 4662.35,8493.82 4616.29,8493.82L4474.75,8493.82L4474.75,7904.04ZM4614.61,8409.56C4629.77,8409.56 4641.43,8405.07 4649.57,8396.08C4657.72,8387.1 4661.79,8372.49 4661.79,8352.27L4661.79,8045.59C4661.79,8025.37 4657.72,8010.76 4649.57,8001.78C4641.43,7992.79 4629.77,7988.3 4614.61,7988.3L4567.43,7988.3L4567.43,8409.56L4614.61,8409.56Z" style="fill:white;fill-rule:nonzero;"/>
    </g>
    <g transform="matrix(1,0,0,1,-1067.17,-6089.26)">
        <path d="M1945.35,6907.11C1854.06,7015.47 1717.37,7084.36 1564.72,7084.36C1290.11,7084.36 1067.17,6861.42 1067.17,6586.81C1067.17,6312.2 1290.11,6089.26 1564.72,6089.26C1717.37,6089.26 1854.06,6158.15 1945.35,6266.51C1875.88,6211.67 1788.19,6178.94 1692.93,6178.94C1467.82,6178.94 1285.06,6361.7 1285.06,6586.81C1285.06,6811.92 1467.82,6994.68 1692.93,6994.68C1788.19,6994.68 1875.88,6961.95 1945.35,6907.11Z" style="fill:white;"/>
    </g>
    <g transform="matrix(2.21952,-0.590603,0.590603,2.21952,-7337.33,-15407.4)">
        <path d="M1378.33,7569.4C1383.61,7570.16 1388.79,7571.78 1393.84,7574.27C1398.9,7576.77 1403.92,7579.75 1408.9,7583.22C1418.11,7574.46 1427.66,7564.23 1437.55,7552.53C1447.44,7540.83 1457.71,7528.86 1468.35,7516.64C1479,7504.41 1490.02,7492.52 1501.42,7480.97C1512.82,7469.41 1524.6,7459.3 1536.75,7450.62C1548.9,7441.94 1561.47,7435.33 1574.46,7430.8C1587.44,7426.27 1600.81,7424.91 1614.54,7426.72C1621.79,7427.78 1627.6,7430.01 1631.98,7433.4C1636.36,7436.8 1639.27,7440.77 1640.7,7445.3C1642.14,7449.82 1641.99,7454.58 1640.25,7459.56C1638.51,7464.55 1635.15,7469.07 1630.17,7473.15C1626.7,7476.02 1623.41,7478.21 1620.32,7479.72C1617.22,7481.23 1614.39,7482.29 1611.83,7482.89C1609.26,7483.49 1607.07,7483.72 1605.26,7483.57C1603.45,7483.42 1602.01,7483.12 1600.96,7482.66C1596.73,7480.85 1594.69,7478.06 1594.84,7474.28C1594.99,7470.51 1596.95,7466.66 1600.73,7462.73C1605.26,7458.05 1609.98,7455 1614.88,7453.56C1619.79,7452.13 1624.43,7452.39 1628.81,7454.35C1630.02,7454.66 1630.85,7455.19 1631.3,7455.94C1632.21,7454.43 1632.4,7452.69 1631.87,7450.73C1631.34,7448.77 1630.28,7446.96 1628.7,7445.3C1627.11,7443.63 1625,7442.12 1622.36,7440.77C1619.72,7439.41 1616.73,7438.5 1613.41,7438.05C1604.2,7436.84 1594.99,7438.84 1585.78,7444.05C1576.57,7449.26 1567.21,7456.51 1557.7,7465.79C1548.19,7475.08 1538.52,7485.76 1528.71,7497.84C1518.89,7509.92 1508.78,7522.18 1498.36,7534.64C1487.94,7547.1 1477.3,7559.14 1466.43,7570.76C1455.56,7582.39 1444.31,7592.35 1432.68,7600.66C1437.82,7604.58 1443.29,7608.51 1449.1,7612.44C1454.92,7616.36 1461.11,7620.02 1467.67,7623.42C1474.24,7626.82 1481.34,7629.8 1488.96,7632.36C1496.59,7634.93 1504.85,7636.82 1513.76,7638.03C1519.35,7638.78 1524.67,7638.74 1529.73,7637.91C1534.79,7637.08 1539.32,7635.84 1543.32,7634.18C1547.32,7632.52 1550.75,7630.63 1553.62,7628.52C1556.49,7626.4 1558.68,7624.44 1560.19,7622.63L1567.44,7631.69C1563.51,7639.69 1558.53,7646.63 1552.49,7652.52C1549.92,7655.09 1546.94,7657.47 1543.54,7659.66C1540.15,7661.85 1536.37,7663.73 1532.22,7665.32C1528.07,7666.9 1523.54,7668 1518.63,7668.6C1513.72,7669.2 1508.33,7669.05 1502.44,7668.15C1495.19,7667.09 1488.1,7664.53 1481.15,7660.45C1474.2,7656.37 1467.37,7651.5 1460.65,7645.84C1453.93,7640.18 1447.33,7634.06 1440.84,7627.5C1434.34,7620.93 1427.85,7614.55 1421.36,7608.36C1412.3,7613.64 1403.17,7617.49 1393.96,7619.91C1384.75,7622.32 1375.16,7622.85 1365.19,7621.49C1357.34,7620.44 1351.08,7618.21 1346.4,7614.81C1341.71,7611.42 1338.47,7607.6 1336.66,7603.38C1334.85,7599.15 1334.43,7594.81 1335.41,7590.35C1336.39,7585.9 1338.69,7581.94 1342.32,7578.46C1345.94,7574.99 1350.77,7572.35 1356.81,7570.54C1362.85,7568.73 1370.03,7568.35 1378.33,7569.4ZM1359.76,7608.36C1366.1,7609.27 1372.67,7608.13 1379.46,7604.96C1386.26,7601.79 1393.28,7597.11 1400.52,7590.92C1396.14,7587.9 1391.77,7585.37 1387.39,7583.33C1383.01,7581.3 1378.63,7579.9 1374.25,7579.14C1366.4,7578.09 1360.17,7578.84 1355.57,7581.41C1350.96,7583.98 1348.06,7587.15 1346.85,7590.92C1345.64,7594.69 1346.09,7598.36 1348.21,7601.9C1350.32,7605.45 1354.17,7607.6 1359.76,7608.36Z" style="fill:rgb(254,186,39);fill-rule:nonzero;"/>
        <path d="M1579.44,7589.56C1582.61,7589.56 1585.89,7589.03 1589.29,7587.98C1592.69,7586.92 1595.93,7585.52 1599.03,7583.79C1602.13,7582.05 1604.96,7580.01 1607.52,7577.67C1610.09,7575.33 1612.2,7572.88 1613.87,7570.31L1617.72,7576.65C1613.94,7584.65 1607.45,7590.92 1598.24,7595.45C1589.03,7599.98 1578.31,7602.24 1566.08,7602.24C1559.74,7602.24 1554.34,7601.07 1549.88,7598.73C1545.43,7596.39 1542,7593.19 1539.58,7589.11C1537.16,7585.03 1535.88,7580.24 1535.73,7574.73C1535.58,7569.22 1536.71,7563.36 1539.13,7557.18C1544.87,7542.53 1552.53,7531.39 1562.12,7523.77C1571.7,7516.15 1582.31,7512.33 1593.93,7512.33C1600.12,7512.33 1604.81,7513.96 1607.98,7517.2C1611.15,7520.45 1612.92,7524.37 1613.3,7528.98C1613.68,7533.58 1612.69,7538.49 1610.35,7543.7C1608.01,7548.91 1604.43,7553.55 1599.6,7557.63C1592.8,7563.21 1584.95,7566.01 1576.04,7566.01L1561.55,7566.01C1559.59,7572.8 1560.3,7578.43 1563.7,7582.88C1567.1,7587.33 1572.34,7589.56 1579.44,7589.56ZM1588.27,7522.52C1586.76,7523.13 1584.99,7524.49 1582.95,7526.6C1580.91,7528.71 1578.84,7531.36 1576.72,7534.53C1574.61,7537.7 1572.46,7541.25 1570.27,7545.17C1568.08,7549.1 1566.15,7553.17 1564.49,7557.4L1572.42,7557.4C1575.89,7557.4 1578.84,7556.34 1581.25,7554.23C1583.67,7552.12 1585.93,7548.87 1588.05,7544.49C1589.86,7541.17 1591.29,7538 1592.35,7534.98C1593.41,7531.96 1594.01,7529.39 1594.16,7527.28C1594.31,7525.17 1593.93,7523.62 1593.03,7522.64C1592.12,7521.66 1590.54,7521.62 1588.27,7522.52Z" style="fill:rgb(254,186,39);fill-rule:nonzero;"/>
        <path d="M1705.36,7514.14C1704.15,7517.01 1702.76,7520.34 1701.17,7524.11C1699.59,7527.88 1697.92,7531.92 1696.19,7536.23C1694.45,7540.53 1692.68,7544.98 1690.87,7549.59C1689.06,7554.19 1687.24,7558.69 1685.43,7563.06C1681.36,7573.33 1676.98,7584.05 1672.3,7595.22C1666.56,7609.87 1658.93,7621.04 1649.42,7628.74C1639.91,7636.44 1629.34,7640.29 1617.72,7640.29C1612.88,7640.29 1609,7639.16 1606.05,7636.9C1603.11,7634.63 1601.11,7631.76 1600.05,7628.29C1598.99,7624.82 1598.8,7620.97 1599.48,7616.74C1600.16,7612.51 1601.63,7608.36 1603.9,7604.28C1606.01,7600.81 1608.43,7597.79 1611.15,7595.22C1609.79,7592.66 1609.15,7589.6 1609.22,7586.05C1609.3,7582.5 1610.32,7578.31 1612.28,7573.48C1613.03,7571.67 1614.2,7568.91 1615.79,7565.22C1617.38,7561.52 1619.04,7557.63 1620.77,7553.55C1622.51,7549.48 1624.09,7545.62 1625.53,7542C1626.96,7538.38 1627.98,7535.74 1628.59,7534.07C1629.94,7531.06 1630.17,7528.6 1629.27,7526.71C1628.36,7524.83 1626.17,7523.88 1622.7,7523.88L1620.43,7523.88L1625.19,7514.14C1626.4,7513.84 1627.68,7513.54 1629.04,7513.24C1630.25,7512.94 1631.53,7512.71 1632.89,7512.56C1634.25,7512.41 1635.76,7512.33 1637.42,7512.33C1646.02,7512.33 1651.42,7514.71 1653.61,7519.47C1655.8,7524.22 1654.78,7531.58 1650.55,7541.55C1649.65,7543.81 1648.4,7546.91 1646.82,7550.83C1645.23,7554.76 1643.61,7558.69 1641.95,7562.61C1640.14,7567.14 1638.25,7571.82 1636.29,7576.65C1635.38,7579.22 1635.38,7581.14 1636.29,7582.43C1637.19,7583.71 1638.59,7584.39 1640.48,7584.47C1642.36,7584.54 1644.59,7583.98 1647.16,7582.77C1649.72,7581.56 1652.14,7579.67 1654.4,7577.11L1680.22,7514.14L1705.36,7514.14ZM1626.32,7602.24C1623,7602.24 1620.13,7601.79 1617.72,7600.89C1615.75,7602.55 1613.87,7604.74 1612.05,7607.45C1610.24,7610.17 1608.88,7613.72 1607.98,7618.1C1607.07,7621.87 1607.56,7624.85 1609.45,7627.04C1611.34,7629.23 1613.79,7630.33 1616.81,7630.33C1619.68,7630.33 1622.58,7629.27 1625.53,7627.16C1628.47,7625.04 1631.27,7622.32 1633.91,7619C1636.55,7615.68 1639,7611.94 1641.27,7607.79C1643.53,7603.64 1645.42,7599.53 1646.93,7595.45C1643.61,7597.56 1640.21,7599.22 1636.74,7600.43C1633.27,7601.64 1629.79,7602.24 1626.32,7602.24Z" style="fill:rgb(254,186,39);fill-rule:nonzero;"/>
    </g>
    <g transform="matrix(0.675357,-0.0689105,0.0689105,0.675357,630.773,822.839)">
        <path d="M126.083,-190.59C138.789,-190.59 148.4,-186.029 154.915,-176.907L172.997,-220.889C175.929,-227.405 176.336,-232.699 174.219,-236.771C172.101,-240.844 167.459,-242.88 160.291,-242.88L155.404,-242.88L165.178,-263.894C167.784,-264.22 170.554,-264.708 173.486,-265.36C176.092,-266.012 178.943,-266.5 182.038,-266.826C185.133,-267.152 188.309,-267.315 191.567,-267.315C210.138,-267.315 221.785,-262.265 226.509,-252.165C231.233,-242.066 229.034,-226.102 219.912,-204.273L157.359,-51.801C155.078,-45.285 155.486,-40.724 158.581,-38.118C161.676,-35.512 166.074,-34.779 171.775,-35.919C177.477,-37.059 183.585,-40.073 190.101,-44.96C196.617,-49.847 201.993,-56.688 206.228,-65.485L214.536,-51.801C211.278,-43.982 206.798,-36.733 201.097,-30.055C195.395,-23.376 189.042,-17.593 182.038,-12.706C175.033,-7.819 167.54,-3.91 159.558,-0.977C151.576,1.955 143.676,3.421 135.856,3.421C125.757,3.421 117.612,1.385 111.422,-2.688C105.232,-6.76 101.322,-13.032 99.693,-21.502C90.245,-13.683 80.634,-7.575 70.86,-3.177C61.087,1.222 51.801,3.421 43.005,3.421C31.928,3.421 22.887,0.896 15.883,-4.154C8.878,-9.204 3.91,-16.127 0.977,-24.923C-1.955,-33.72 -2.851,-44.064 -1.71,-55.955C-0.57,-67.847 2.932,-80.471 8.796,-93.829C23.131,-127.06 40.643,-151.495 61.331,-167.133C82.019,-182.771 103.603,-190.59 126.083,-190.59ZM106.046,-58.643C107.024,-60.924 108.897,-65.403 111.666,-72.082C114.435,-78.761 117.775,-86.661 121.684,-95.784C125.594,-104.906 129.748,-114.924 134.146,-125.838C138.544,-136.752 142.861,-147.422 147.096,-157.848C143.513,-162.409 138.626,-164.689 132.436,-164.689C120.381,-164.689 109.304,-159.558 99.205,-149.296C89.105,-139.033 77.702,-121.196 64.996,-95.784C60.435,-86.336 56.77,-77.458 54.001,-69.15C51.231,-60.842 49.684,-53.593 49.358,-47.403C49.032,-41.213 50.091,-36.326 52.534,-32.742C54.978,-29.159 58.969,-27.367 64.507,-27.367C70.046,-27.367 75.91,-28.996 82.1,-32.254C88.29,-35.512 94.643,-39.91 101.159,-45.448C101.811,-47.729 102.544,-49.847 103.358,-51.801C104.173,-53.756 105.069,-56.037 106.046,-58.643Z" style="fill:rgb(254,186,39);fill-rule:nonzero;"/>
        <path d="M300.057,-23.946C306.899,-23.946 313.985,-25.086 321.315,-27.367C328.646,-29.647 335.65,-32.661 342.329,-36.408C349.008,-40.154 355.116,-44.552 360.655,-49.602C366.193,-54.652 370.755,-59.946 374.338,-65.485L382.646,-51.801C374.501,-34.534 360.492,-21.014 340.619,-11.24C320.745,-1.466 297.614,3.421 271.224,3.421C257.541,3.421 245.894,0.896 236.283,-4.154C226.672,-9.204 219.26,-16.127 214.047,-24.923C208.835,-33.72 206.065,-44.064 205.739,-55.955C205.414,-67.847 207.857,-80.471 213.07,-93.829C225.45,-125.431 241.984,-149.458 262.672,-165.911C283.36,-182.364 306.247,-190.59 331.333,-190.59C344.691,-190.59 354.791,-187.088 361.632,-180.083C368.474,-173.079 372.302,-164.608 373.117,-154.671C373.931,-144.734 371.813,-134.146 366.764,-122.906C361.714,-111.666 353.976,-101.648 343.551,-92.852C328.89,-80.797 311.949,-74.77 292.727,-74.77L261.45,-74.77C257.215,-60.109 258.763,-47.973 266.093,-38.362C273.423,-28.751 284.745,-23.946 300.057,-23.946ZM319.116,-168.599C315.858,-167.296 312.03,-164.364 307.632,-159.802C303.234,-155.241 298.754,-149.54 294.193,-142.698C289.632,-135.856 284.989,-128.2 280.265,-119.73C275.541,-111.259 271.387,-102.462 267.803,-93.34L284.908,-93.34C292.401,-93.34 298.754,-95.621 303.967,-100.182C309.179,-104.743 314.066,-111.748 318.627,-121.196C322.537,-128.363 325.632,-135.205 327.913,-141.721C330.193,-148.237 331.496,-153.775 331.822,-158.336C332.148,-162.897 331.333,-166.237 329.379,-168.355C327.424,-170.472 324.003,-170.554 319.116,-168.599Z" style="fill:rgb(254,186,39);fill-rule:nonzero;"/>
    </g>
</svg>
