<?xml version="1.0" encoding="UTF-8" standalone="no"?>
<!DOCTYPE svg PUBLIC "-//W3C//DTD SVG 1.1//EN" "http://www.w3.org/Graphics/SVG/1.1/DTD/svg11.dtd">
<svg width="100%" height="100%" viewBox="0 0 3760 1334" version="1.1" xmlns="http://www.w3.org/2000/svg" xmlns:xlink="http://www.w3.org/1999/xlink" xml:space="preserve" xmlns:serif="http://www.serif.com/" style="fill-rule:evenodd;clip-rule:evenodd;stroke-linejoin:round;stroke-miterlimit:2;">
    <g transform="matrix(2.3931,0,0,2.38102,-4509.97,-19681.4)">
        <path d="M2279.12,8291.08L1920.77,8645.73L1884.57,8645.73L1884.57,8276.3L1920.77,8276.3L1920.77,8598.44L2253.99,8265.96L2279.12,8291.08Z" style="fill:rgb(21,21,21);fill-rule:nonzero;"/>
    </g>
    <g transform="matrix(2.3931,0,0,2.38102,-4620.99,-19692.5)">
        <path d="M2482.3,8276.3C2507.91,8276.3 2532.05,8281.11 2554.71,8290.71C2577.37,8300.32 2596.95,8313.37 2613.45,8329.87C2629.95,8346.37 2643,8365.95 2652.61,8388.61C2662.21,8411.27 2667.01,8435.4 2667.01,8461.02L2667.01,8645.73L2630.07,8645.73L2630.07,8571.85C2613.32,8594.01 2591.9,8611.87 2565.79,8625.41C2539.68,8638.96 2511.86,8645.73 2482.3,8645.73C2456.19,8645.73 2431.93,8640.93 2409.52,8631.33C2387.11,8621.72 2367.65,8608.67 2351.15,8592.17C2334.65,8575.66 2321.6,8556.21 2311.99,8533.8C2302.39,8511.38 2297.59,8487.12 2297.59,8461.02C2297.59,8435.4 2302.39,8411.27 2311.99,8388.61C2321.6,8365.95 2334.65,8346.37 2351.15,8329.87C2367.65,8313.37 2387.11,8300.32 2409.52,8290.71C2431.93,8281.11 2456.19,8276.3 2482.3,8276.3ZM2482.3,8608.79C2502.5,8608.79 2521.58,8604.85 2539.56,8596.97C2557.54,8589.09 2573.18,8578.5 2586.48,8565.2C2599.78,8551.9 2610.37,8536.26 2618.25,8518.28C2626.13,8500.3 2630.07,8481.21 2630.07,8461.02C2630.07,8440.82 2626.13,8421.74 2618.25,8403.76C2610.37,8385.78 2599.78,8370.14 2586.48,8356.84C2573.18,8343.54 2557.54,8332.95 2539.56,8325.07C2521.58,8317.19 2502.5,8313.25 2482.3,8313.25C2462.11,8313.25 2443.02,8317.19 2425.04,8325.07C2407.06,8332.95 2391.42,8343.54 2378.12,8356.84C2364.82,8370.14 2354.23,8385.78 2346.35,8403.76C2338.47,8421.74 2334.53,8440.82 2334.53,8461.02C2334.53,8481.21 2338.47,8500.3 2346.35,8518.28C2354.23,8536.26 2364.82,8551.9 2378.12,8565.2C2391.42,8578.5 2407.06,8589.09 2425.04,8596.97C2443.02,8604.85 2462.11,8608.79 2482.3,8608.79Z" style="fill:rgb(21,21,21);fill-rule:nonzero;"/>
    </g>
    <g transform="matrix(1,0,0,1,-1073.02,-2286.04)">
        <path d="M2949.41,2299.56L3037.31,2299.56L3037.31,2473.53C3049.62,2457.06 3063.05,2441.59 3077.6,2427.11C3117.09,2387.83 3163.66,2356.75 3217.29,2333.87C3270.92,2311.01 3328.98,2299.56 3391.44,2299.56C3451.58,2299.56 3508.15,2311.01 3561.18,2333.87C3614.23,2356.75 3661.09,2387.83 3701.75,2427.11C3742.43,2466.4 3774.55,2513.02 3798.12,2566.97C3821.69,2620.93 3833.49,2678.38 3833.49,2739.38L3745.09,2739.38C3745.09,2691.29 3735.66,2645.86 3716.78,2603.05C3697.92,2560.23 3672.58,2522.99 3640.75,2491.33C3608.92,2459.66 3571.49,2434.45 3528.49,2415.68C3485.46,2396.92 3439.78,2387.54 3391.44,2387.54C3343.12,2387.54 3297.43,2396.92 3254.41,2415.68C3211.38,2434.45 3173.97,2459.66 3142.15,2491.33C3110.32,2522.99 3084.97,2560.23 3066.09,2603.05C3047.24,2645.86 3037.81,2691.29 3037.81,2739.38L3037.81,3179.18L2949.41,3179.18L2949.41,2299.56Z" style="fill:rgb(21,21,21);fill-rule:nonzero;"/>
    </g>
    <g transform="matrix(2.3931,0,0,2.38102,-4620.99,-19692.5)">
        <path d="M3501.92,8461.02L3501.92,8645.73C3501.92,8670.85 3497.12,8694.5 3487.51,8716.66C3477.91,8738.83 3464.86,8758.41 3448.36,8775.4C3431.85,8792.4 3412.28,8805.82 3389.62,8815.67C3366.96,8825.52 3342.82,8830.45 3317.21,8830.45C3292.09,8830.45 3268.44,8825.52 3246.28,8815.67C3224.11,8805.82 3204.53,8792.4 3187.54,8775.4C3170.55,8758.41 3157.12,8738.83 3147.27,8716.66C3137.42,8694.5 3132.49,8670.85 3132.49,8645.73L3169.44,8645.73C3169.44,8665.93 3173.38,8685.01 3181.26,8702.99C3189.14,8720.97 3199.73,8736.61 3213.03,8749.91C3226.33,8763.21 3241.97,8773.8 3259.95,8781.68C3277.93,8789.56 3297.01,8793.5 3317.21,8793.5C3338.39,8793.5 3357.97,8789.56 3375.95,8781.68C3393.93,8773.8 3409.57,8763.21 3422.87,8749.91C3436.16,8736.61 3446.51,8720.97 3453.9,8702.99C3461.28,8685.01 3464.98,8665.93 3464.98,8645.73L3464.98,8571.85C3448.23,8594.01 3427.3,8611.87 3402.18,8625.41C3377.06,8638.96 3348.73,8645.73 3317.21,8645.73C3292.09,8645.73 3268.44,8640.93 3246.28,8631.33C3224.11,8621.72 3204.53,8608.67 3187.54,8592.17C3170.55,8575.66 3157.12,8556.21 3147.27,8533.8C3137.42,8511.38 3132.49,8487.12 3132.49,8461.02C3132.49,8435.4 3137.42,8411.27 3147.27,8388.61C3157.12,8365.95 3170.55,8346.37 3187.54,8329.87C3204.53,8313.37 3224.11,8300.32 3246.28,8290.71C3268.44,8281.11 3292.09,8276.3 3317.21,8276.3C3342.82,8276.3 3366.96,8281.11 3389.62,8290.71C3412.28,8300.32 3431.85,8313.37 3448.36,8329.87C3464.86,8346.37 3477.91,8365.95 3487.51,8388.61C3497.12,8411.27 3501.92,8435.4 3501.92,8461.02ZM3317.21,8608.79C3338.39,8608.79 3357.97,8604.85 3375.95,8596.97C3393.93,8589.09 3409.57,8578.5 3422.87,8565.2C3436.16,8551.9 3446.51,8536.26 3453.9,8518.28C3461.28,8500.3 3464.98,8481.21 3464.98,8461.02C3464.98,8440.82 3461.28,8421.74 3453.9,8403.76C3446.51,8385.78 3436.16,8370.14 3422.87,8356.84C3409.57,8343.54 3393.93,8332.95 3375.95,8325.07C3357.97,8317.19 3338.39,8313.25 3317.21,8313.25C3297.01,8313.25 3277.93,8317.19 3259.95,8325.07C3241.97,8332.95 3226.33,8343.54 3213.03,8356.84C3199.73,8370.14 3189.14,8385.78 3181.26,8403.76C3173.38,8421.74 3169.44,8440.82 3169.44,8461.02C3169.44,8481.21 3173.38,8500.3 3181.26,8518.28C3189.14,8536.26 3199.73,8551.9 3213.03,8565.2C3226.33,8578.5 3241.97,8589.09 3259.95,8596.97C3277.93,8604.85 3297.01,8608.79 3317.21,8608.79Z" style="fill:rgb(21,21,21);fill-rule:nonzero;"/>
    </g>
    <g transform="matrix(3.21679,0,0,3.21679,539.848,-207.54)">
        <path d="M149.949,397.764C153.706,397.764 157.246,398.468 160.569,399.877C163.892,401.286 166.764,403.2 169.184,405.62C171.604,408.04 173.519,410.912 174.927,414.235C176.336,417.559 177.041,421.099 177.041,424.855L177.041,451.947L171.622,451.947L171.622,441.11C169.166,444.361 166.023,446.98 162.194,448.967C158.365,450.954 154.284,451.947 149.949,451.947C146.12,451.947 142.562,451.243 139.275,449.834C135.988,448.425 133.134,446.511 130.714,444.09C128.294,441.67 126.379,438.817 124.97,435.53C123.562,432.242 122.857,428.684 122.857,424.855C122.857,421.099 123.562,417.559 124.97,414.235C126.379,410.912 128.294,408.04 130.714,405.62C133.134,403.2 135.988,401.286 139.275,399.877C142.562,398.468 146.12,397.764 149.949,397.764ZM149.949,446.529C152.911,446.529 155.71,445.951 158.347,444.795C160.984,443.639 163.278,442.086 165.229,440.135C167.179,438.185 168.732,435.891 169.888,433.254C171.044,430.617 171.622,427.817 171.622,424.855C171.622,421.893 171.044,419.094 169.888,416.457C168.732,413.82 167.179,411.526 165.229,409.576C163.278,407.625 160.984,406.072 158.347,404.916C155.71,403.76 152.911,403.182 149.949,403.182C146.987,403.182 144.187,403.76 141.55,404.916C138.913,406.072 136.62,407.625 134.669,409.576C132.719,411.526 131.165,413.82 130.009,416.457C128.853,419.094 128.275,421.893 128.275,424.855C128.275,427.817 128.853,430.617 130.009,433.254C131.165,435.891 132.719,438.185 134.669,440.135C136.62,442.086 138.913,443.639 141.55,444.795C144.187,445.951 146.987,446.529 149.949,446.529Z" style="fill:rgb(29,175,215);fill-rule:nonzero;"/>
        <g transform="matrix(0.310869,0,0,0.310869,-167.822,64.5176)">
            <path d="M1189.37,1000.11L1189.53,1106.84C1197.43,1096.38 1207.54,1087.96 1219.86,1081.57C1232.17,1075.18 1245.3,1071.98 1259.25,1071.98C1271.33,1071.98 1282.72,1074.25 1293.41,1078.78C1304.1,1083.31 1313.34,1089.47 1321.12,1097.25C1328.91,1105.04 1335.06,1114.28 1339.6,1124.97C1344.13,1135.66 1346.39,1147.05 1346.39,1159.13C1346.39,1171.45 1344.13,1182.89 1339.6,1193.47C1335.06,1204.04 1328.91,1213.22 1321.12,1221C1313.34,1228.79 1304.1,1234.95 1293.41,1239.48C1282.72,1244.01 1271.33,1246.28 1259.25,1246.28C1246.93,1246.28 1235.48,1244.01 1224.91,1239.48C1214.34,1234.95 1205.15,1228.79 1197.37,1221C1189.59,1213.22 1183.43,1204.04 1178.9,1193.47C1174.36,1182.89 1172.1,1171.45 1172.1,1159.13L1172.01,1000.11L1189.37,1000.11ZM1259.25,1228.85C1268.77,1228.85 1277.78,1226.99 1286.26,1223.27C1294.75,1219.55 1302.12,1214.56 1308.4,1208.28C1314.67,1202.01 1319.67,1194.63 1323.39,1186.15C1327.11,1177.66 1328.96,1168.66 1328.96,1159.13C1328.96,1149.6 1327.11,1140.6 1323.39,1132.12C1319.67,1123.63 1314.67,1116.25 1308.4,1109.98C1302.12,1103.7 1294.75,1098.71 1286.26,1094.99C1277.78,1091.27 1268.77,1089.41 1259.25,1089.41C1249.72,1089.41 1240.71,1091.27 1232.23,1094.99C1223.75,1098.71 1216.37,1103.7 1210.1,1109.98C1203.82,1116.25 1198.82,1123.63 1195.11,1132.12C1191.39,1140.6 1189.53,1149.6 1189.53,1159.13C1189.53,1168.66 1191.39,1177.66 1195.11,1186.15C1198.82,1194.63 1203.82,1202.01 1210.1,1208.28C1216.37,1214.56 1223.75,1219.55 1232.23,1223.27C1240.71,1226.99 1249.72,1228.85 1259.25,1228.85Z" style="fill:rgb(29,175,215);fill-rule:nonzero;"/>
        </g>
        <path d="M297.328,397.764C301.012,397.764 304.48,398.468 307.731,399.877C310.982,401.286 313.854,403.2 316.346,405.62C318.839,408.04 320.807,410.912 322.252,414.235C323.697,417.559 324.419,421.099 324.419,424.855C324.419,428.684 323.697,432.242 322.252,435.53C320.807,438.817 318.839,441.67 316.346,444.09C313.854,446.511 310.982,448.425 307.731,449.834C304.48,451.243 301.012,451.947 297.328,451.947C293.499,451.947 289.941,451.243 286.654,449.834C283.366,448.425 280.513,446.511 278.093,444.09C275.672,441.67 273.758,438.817 272.349,435.53C270.94,432.242 270.236,428.684 270.236,424.855C270.236,421.099 270.94,417.559 272.349,414.235C273.758,410.912 275.672,408.04 278.093,405.62C280.513,403.2 283.366,401.286 286.654,399.877C289.941,398.468 293.499,397.764 297.328,397.764ZM297.328,446.529C300.29,446.529 303.089,445.951 305.726,444.795C308.363,443.639 310.657,442.086 312.607,440.135C314.558,438.185 316.111,435.891 317.267,433.254C318.423,430.617 319.001,427.817 319.001,424.855C319.001,421.893 318.423,419.094 317.267,416.457C316.111,413.82 314.558,411.526 312.607,409.576C310.657,407.625 308.363,406.072 305.726,404.916C303.089,403.76 300.29,403.182 297.328,403.182C294.366,403.182 291.566,403.76 288.929,404.916C286.292,406.072 283.999,407.625 282.048,409.576C280.097,411.526 278.544,413.82 277.388,416.457C276.232,419.094 275.654,421.893 275.654,424.855C275.654,427.817 276.232,430.617 277.388,433.254C278.544,435.891 280.097,438.185 282.048,440.135C283.999,442.086 286.292,443.639 288.929,444.795C291.566,445.951 294.366,446.529 297.328,446.529Z" style="fill:rgb(29,175,215);fill-rule:nonzero;"/>
        <path d="M398.109,424.855L398.109,451.947C398.109,455.632 397.405,459.099 395.996,462.35C394.587,465.601 392.673,468.473 390.252,470.965C387.832,473.458 384.96,475.427 381.637,476.871C378.314,478.316 374.774,479.039 371.017,479.039C367.333,479.039 363.865,478.316 360.614,476.871C357.363,475.427 354.491,473.458 351.999,470.965C349.506,468.473 347.538,465.601 346.093,462.35C344.648,459.099 343.925,455.632 343.925,451.947L349.344,451.947C349.344,454.909 349.922,457.709 351.078,460.346C352.234,462.982 353.787,465.276 355.737,467.227C357.688,469.177 359.982,470.731 362.619,471.887C365.256,473.042 368.055,473.62 371.017,473.62C374.124,473.62 376.995,473.042 379.632,471.887C382.269,470.731 384.563,469.177 386.514,467.227C388.464,465.276 389.981,462.982 391.065,460.346C392.149,457.709 392.691,454.909 392.691,451.947L392.691,441.11C390.234,444.361 387.164,446.98 383.479,448.967C379.795,450.954 375.641,451.947 371.017,451.947C367.333,451.947 363.865,451.243 360.614,449.834C357.363,448.425 354.491,446.511 351.999,444.09C349.506,441.67 347.538,438.817 346.093,435.53C344.648,432.242 343.925,428.684 343.925,424.855C343.925,421.099 344.648,417.559 346.093,414.235C347.538,410.912 349.506,408.04 351.999,405.62C354.491,403.2 357.363,401.286 360.614,399.877C363.865,398.468 367.333,397.764 371.017,397.764C374.774,397.764 378.314,398.468 381.637,399.877C384.96,401.286 387.832,403.2 390.252,405.62C392.673,408.04 394.587,410.912 395.996,414.235C397.405,417.559 398.109,421.099 398.109,424.855ZM371.017,446.529C374.124,446.529 376.995,445.951 379.632,444.795C382.269,443.639 384.563,442.086 386.514,440.135C388.464,438.185 389.981,435.891 391.065,433.254C392.149,430.617 392.691,427.817 392.691,424.855C392.691,421.893 392.149,419.094 391.065,416.457C389.981,413.82 388.464,411.526 386.514,409.576C384.563,407.625 382.269,406.072 379.632,404.916C376.995,403.76 374.124,403.182 371.017,403.182C368.055,403.182 365.256,403.76 362.619,404.916C359.982,406.072 357.688,407.625 355.737,409.576C353.787,411.526 352.234,413.82 351.078,416.457C349.922,419.094 349.344,421.893 349.344,424.855C349.344,427.817 349.922,430.617 351.078,433.254C352.234,435.891 353.787,438.185 355.737,440.135C357.688,442.086 359.982,443.639 362.619,444.795C365.256,445.951 368.055,446.529 371.017,446.529Z" style="fill:rgb(29,175,215);fill-rule:nonzero;"/>
        <path d="M444.707,397.764C448.463,397.764 452.003,398.468 455.327,399.877C458.65,401.286 461.522,403.2 463.942,405.62C466.362,408.04 468.276,410.912 469.685,414.235C471.094,417.559 471.798,421.099 471.798,424.855L471.798,451.947L466.38,451.947L466.38,441.11C463.924,444.361 460.781,446.98 456.952,448.967C453.123,450.954 449.041,451.947 444.707,451.947C440.878,451.947 437.32,451.243 434.033,449.834C430.745,448.425 427.892,446.511 425.472,444.09C423.051,441.67 421.137,438.817 419.728,435.53C418.319,432.242 417.615,428.684 417.615,424.855C417.615,421.099 418.319,417.559 419.728,414.235C421.137,410.912 423.051,408.04 425.472,405.62C427.892,403.2 430.745,401.286 434.033,399.877C437.32,398.468 440.878,397.764 444.707,397.764ZM444.707,446.529C447.669,446.529 450.468,445.951 453.105,444.795C455.742,443.639 458.036,442.086 459.986,440.135C461.937,438.185 463.49,435.891 464.646,433.254C465.802,430.617 466.38,427.817 466.38,424.855C466.38,421.893 465.802,419.094 464.646,416.457C463.49,413.82 461.937,411.526 459.986,409.576C458.036,407.625 455.742,406.072 453.105,404.916C450.468,403.76 447.669,403.182 444.707,403.182C441.745,403.182 438.945,403.76 436.308,404.916C433.671,406.072 431.378,407.625 429.427,409.576C427.476,411.526 425.923,413.82 424.767,416.457C423.611,419.094 423.033,421.893 423.033,424.855C423.033,427.817 423.611,430.617 424.767,433.254C425.923,435.891 427.476,438.185 429.427,440.135C431.378,442.086 433.671,443.639 436.308,444.795C438.945,445.951 441.745,446.529 444.707,446.529Z" style="fill:rgb(29,175,215);fill-rule:nonzero;"/>
        <g transform="matrix(0.310869,0,0,0.310869,-167.822,64.5176)">
            <path d="M2294.57,1000.11L2294.57,1159.13C2294.57,1171.45 2292.3,1182.89 2287.77,1193.47C2283.24,1204.04 2277.08,1213.22 2269.29,1221C2261.51,1228.79 2252.27,1234.95 2241.58,1239.48C2230.89,1244.01 2219.5,1246.28 2207.42,1246.28C2195.1,1246.28 2183.66,1244.01 2173.08,1239.48C2162.51,1234.95 2153.33,1228.79 2145.54,1221C2137.76,1213.22 2131.6,1204.04 2127.07,1193.47C2122.54,1182.89 2120.27,1171.45 2120.27,1159.13C2120.27,1147.05 2122.54,1135.66 2127.07,1124.97C2131.6,1114.28 2137.76,1105.04 2145.54,1097.25C2153.33,1089.47 2162.51,1083.31 2173.08,1078.78C2183.66,1074.25 2195.1,1071.98 2207.42,1071.98C2221.36,1071.98 2234.49,1075.18 2246.81,1081.57C2259.13,1087.96 2269.24,1096.38 2277.14,1106.84L2277.05,1000.11L2294.57,1000.11ZM2137.7,1159.13C2137.7,1168.66 2139.56,1177.66 2143.28,1186.15C2147,1194.63 2151.99,1202.01 2158.27,1208.28C2164.54,1214.56 2171.92,1219.55 2180.4,1223.27C2188.89,1226.99 2197.89,1228.85 2207.42,1228.85C2216.95,1228.85 2225.95,1226.99 2234.44,1223.27C2242.92,1219.55 2250.3,1214.56 2256.57,1208.28C2262.84,1202.01 2267.84,1194.63 2271.56,1186.15C2275.28,1177.66 2277.14,1168.66 2277.14,1159.13C2277.14,1149.6 2275.28,1140.6 2271.56,1132.12C2267.84,1123.63 2262.84,1116.25 2256.57,1109.98C2250.3,1103.7 2242.92,1098.71 2234.44,1094.99C2225.95,1091.27 2216.95,1089.41 2207.42,1089.41C2197.89,1089.41 2188.89,1091.27 2180.4,1094.99C2171.92,1098.71 2164.54,1103.7 2158.27,1109.98C2151.99,1116.25 2147,1123.63 2143.28,1132.12C2139.56,1140.6 2137.7,1149.6 2137.7,1159.13Z" style="fill:rgb(29,175,215);fill-rule:nonzero;"/>
        </g>
        <path d="M592.086,397.764C595.77,397.764 599.238,398.468 602.489,399.877C605.74,401.286 608.611,403.2 611.104,405.62C613.596,408.04 615.565,410.912 617.01,414.235C618.455,417.559 619.177,421.099 619.177,424.855C619.177,428.684 618.455,432.242 617.01,435.53C615.565,438.817 613.596,441.67 611.104,444.09C608.611,446.511 605.74,448.425 602.489,449.834C599.238,451.243 595.77,451.947 592.086,451.947C588.257,451.947 584.699,451.243 581.411,449.834C578.124,448.425 575.271,446.511 572.85,444.09C570.43,441.67 568.516,438.817 567.107,435.53C565.698,432.242 564.994,428.684 564.994,424.855C564.994,421.099 565.698,417.559 567.107,414.235C568.516,410.912 570.43,408.04 572.85,405.62C575.271,403.2 578.124,401.286 581.411,399.877C584.699,398.468 588.257,397.764 592.086,397.764ZM592.086,446.529C595.048,446.529 597.847,445.951 600.484,444.795C603.121,443.639 605.415,442.086 607.365,440.135C609.316,438.185 610.869,435.891 612.025,433.254C613.181,430.617 613.759,427.817 613.759,424.855C613.759,421.893 613.181,419.094 612.025,416.457C610.869,413.82 609.316,411.526 607.365,409.576C605.415,407.625 603.121,406.072 600.484,404.916C597.847,403.76 595.048,403.182 592.086,403.182C589.124,403.182 586.324,403.76 583.687,404.916C581.05,406.072 578.756,407.625 576.806,409.576C574.855,411.526 573.302,413.82 572.146,416.457C570.99,419.094 570.412,421.893 570.412,424.855C570.412,427.817 570.99,430.617 572.146,433.254C573.302,435.891 574.855,438.185 576.806,440.135C578.756,442.086 581.05,443.639 583.687,444.795C586.324,445.951 589.124,446.529 592.086,446.529Z" style="fill:rgb(29,175,215);fill-rule:nonzero;"/>
        <path d="M653.855,403.182C651.109,403.182 648.798,404.031 646.919,405.729C645.041,407.426 644.102,409.648 644.102,412.393C644.102,415.138 645.041,417.45 646.919,419.329C648.798,421.207 651.109,422.146 653.855,422.146L678.237,422.146C680.26,422.146 682.156,422.525 683.926,423.284C685.696,424.043 687.25,425.09 688.586,426.427C689.923,427.763 690.97,429.316 691.729,431.086C692.487,432.856 692.867,434.753 692.867,436.776C692.867,438.799 692.487,440.731 691.729,442.573C690.97,444.416 689.923,446.023 688.586,447.396C687.25,448.768 685.696,449.87 683.926,450.701C682.156,451.532 680.26,451.947 678.237,451.947L638.683,451.947L638.683,446.529L678.237,446.529C680.694,446.529 682.843,445.59 684.685,443.711C686.527,441.833 687.448,439.521 687.448,436.776C687.448,434.03 686.527,431.809 684.685,430.111C682.843,428.413 680.694,427.565 678.237,427.565L653.855,427.565C651.687,427.565 649.683,427.149 647.84,426.318C645.998,425.488 644.391,424.386 643.018,423.013C641.645,421.64 640.58,420.033 639.821,418.191C639.063,416.349 638.683,414.416 638.683,412.393C638.683,410.37 639.063,408.474 639.821,406.704C640.58,404.934 641.645,403.381 643.018,402.044C644.391,400.708 645.998,399.66 647.84,398.902C649.683,398.143 651.687,397.764 653.855,397.764L692.867,397.764L692.867,403.182L653.855,403.182Z" style="fill:rgb(29,175,215);fill-rule:nonzero;"/>
    </g>
    <g transform="matrix(2.94299,0,0,1.83706,0.84869,418.188)">
        <path d="M277.048,402.128C277.048,400.472 275.654,399.128 273.935,399.128L3.118,399.128C1.399,399.128 0.005,400.472 0.005,402.128L0.005,407.504C0.005,409.161 1.399,410.504 3.118,410.504L273.935,410.504C275.654,410.504 277.048,409.161 277.048,407.504L277.048,402.128Z" style="fill:rgb(29,175,215);"/>
    </g>
</svg>
