<?xml version="1.0" encoding="UTF-8" standalone="no"?>
<!DOCTYPE svg PUBLIC "-//W3C//DTD SVG 1.1//EN" "http://www.w3.org/Graphics/SVG/1.1/DTD/svg11.dtd">
<svg width="100%" height="100%" viewBox="0 0 1376 488" version="1.1" xmlns="http://www.w3.org/2000/svg" xmlns:xlink="http://www.w3.org/1999/xlink" xml:space="preserve" xmlns:serif="http://www.serif.com/" style="fill-rule:evenodd;clip-rule:evenodd;stroke-linejoin:round;stroke-miterlimit:2;">
    <g transform="matrix(0.875831,0,0,0.871409,-1691.19,-7207.1)">
        <g transform="matrix(1,0,0,1,46.3901,4.66255)">
            <path d="M2279.12,8291.08L1920.77,8645.73L1884.57,8645.73L1884.57,8276.3L1920.77,8276.3L1920.77,8598.44L2253.99,8265.96L2279.12,8291.08Z" style="fill:white;fill-rule:nonzero;"/>
        </g>
        <path d="M2482.3,8276.3C2507.91,8276.3 2532.05,8281.11 2554.71,8290.71C2577.37,8300.32 2596.95,8313.37 2613.45,8329.87C2629.95,8346.37 2643,8365.95 2652.61,8388.61C2662.21,8411.27 2667.01,8435.4 2667.01,8461.02L2667.01,8645.73L2630.07,8645.73L2630.07,8571.85C2613.32,8594.01 2591.9,8611.87 2565.79,8625.41C2539.68,8638.96 2511.86,8645.73 2482.3,8645.73C2456.19,8645.73 2431.93,8640.93 2409.52,8631.33C2387.11,8621.72 2367.65,8608.67 2351.15,8592.17C2334.65,8575.66 2321.6,8556.21 2311.99,8533.8C2302.39,8511.38 2297.59,8487.12 2297.59,8461.02C2297.59,8435.4 2302.39,8411.27 2311.99,8388.61C2321.6,8365.95 2334.65,8346.37 2351.15,8329.87C2367.65,8313.37 2387.11,8300.32 2409.52,8290.71C2431.93,8281.11 2456.19,8276.3 2482.3,8276.3ZM2482.3,8608.79C2502.5,8608.79 2521.58,8604.85 2539.56,8596.97C2557.54,8589.09 2573.18,8578.5 2586.48,8565.2C2599.78,8551.9 2610.37,8536.26 2618.25,8518.28C2626.13,8500.3 2630.07,8481.21 2630.07,8461.02C2630.07,8440.82 2626.13,8421.74 2618.25,8403.76C2610.37,8385.78 2599.78,8370.14 2586.48,8356.84C2573.18,8343.54 2557.54,8332.95 2539.56,8325.07C2521.58,8317.19 2502.5,8313.25 2482.3,8313.25C2462.11,8313.25 2443.02,8317.19 2425.04,8325.07C2407.06,8332.95 2391.42,8343.54 2378.12,8356.84C2364.82,8370.14 2354.23,8385.78 2346.35,8403.76C2338.47,8421.74 2334.53,8440.82 2334.53,8461.02C2334.53,8481.21 2338.47,8500.3 2346.35,8518.28C2354.23,8536.26 2364.82,8551.9 2378.12,8565.2C2391.42,8578.5 2407.06,8589.09 2425.04,8596.97C2443.02,8604.85 2462.11,8608.79 2482.3,8608.79Z" style="fill:white;fill-rule:nonzero;"/>
        <path d="M2899.75,8276.3C2924.88,8276.3 2948.52,8281.11 2970.68,8290.71C2992.85,8300.32 3012.43,8313.37 3029.42,8329.87C3046.42,8346.37 3059.84,8365.95 3069.69,8388.61C3079.54,8411.27 3084.47,8435.4 3084.47,8461.02L3047.53,8461.02C3047.53,8440.82 3043.59,8421.74 3035.7,8403.76C3027.82,8385.78 3017.23,8370.14 3003.93,8356.84C2990.63,8343.54 2974.99,8332.95 2957.02,8325.07C2939.04,8317.19 2919.95,8313.25 2899.75,8313.25C2879.56,8313.25 2860.47,8317.19 2842.49,8325.07C2824.51,8332.95 2808.88,8343.54 2795.58,8356.84C2782.28,8370.14 2771.69,8385.78 2763.8,8403.76C2755.92,8421.74 2751.98,8440.82 2751.98,8461.02L2751.98,8645.73L2715.04,8645.73L2715.04,8461.02C2715.04,8435.4 2719.84,8411.27 2729.45,8388.61C2739.05,8365.95 2752.11,8346.37 2768.61,8329.87C2785.11,8313.37 2804.57,8300.32 2826.98,8290.71C2849.39,8281.11 2873.65,8276.3 2899.75,8276.3Z" style="fill:white;fill-rule:nonzero;"/>
        <path d="M3501.92,8461.02L3501.92,8645.73C3501.92,8670.85 3497.12,8694.5 3487.51,8716.66C3477.91,8738.83 3464.86,8758.41 3448.36,8775.4C3431.85,8792.4 3412.28,8805.82 3389.62,8815.67C3366.96,8825.52 3342.82,8830.45 3317.21,8830.45C3292.09,8830.45 3268.44,8825.52 3246.28,8815.67C3224.11,8805.82 3204.53,8792.4 3187.54,8775.4C3170.55,8758.41 3157.12,8738.83 3147.27,8716.66C3137.42,8694.5 3132.49,8670.85 3132.49,8645.73L3169.44,8645.73C3169.44,8665.93 3173.38,8685.01 3181.26,8702.99C3189.14,8720.97 3199.73,8736.61 3213.03,8749.91C3226.33,8763.21 3241.97,8773.8 3259.95,8781.68C3277.93,8789.56 3297.01,8793.5 3317.21,8793.5C3338.39,8793.5 3357.97,8789.56 3375.95,8781.68C3393.93,8773.8 3409.57,8763.21 3422.87,8749.91C3436.16,8736.61 3446.51,8720.97 3453.9,8702.99C3461.28,8685.01 3464.98,8665.93 3464.98,8645.73L3464.98,8571.85C3448.23,8594.01 3427.3,8611.87 3402.18,8625.41C3377.06,8638.96 3348.73,8645.73 3317.21,8645.73C3292.09,8645.73 3268.44,8640.93 3246.28,8631.33C3224.11,8621.72 3204.53,8608.67 3187.54,8592.17C3170.55,8575.66 3157.12,8556.21 3147.27,8533.8C3137.42,8511.38 3132.49,8487.12 3132.49,8461.02C3132.49,8435.4 3137.42,8411.27 3147.27,8388.61C3157.12,8365.95 3170.55,8346.37 3187.54,8329.87C3204.53,8313.37 3224.11,8300.32 3246.28,8290.71C3268.44,8281.11 3292.09,8276.3 3317.21,8276.3C3342.82,8276.3 3366.96,8281.11 3389.62,8290.71C3412.28,8300.32 3431.85,8313.37 3448.36,8329.87C3464.86,8346.37 3477.91,8365.95 3487.51,8388.61C3497.12,8411.27 3501.92,8435.4 3501.92,8461.02ZM3317.21,8608.79C3338.39,8608.79 3357.97,8604.85 3375.95,8596.97C3393.93,8589.09 3409.57,8578.5 3422.87,8565.2C3436.16,8551.9 3446.51,8536.26 3453.9,8518.28C3461.28,8500.3 3464.98,8481.21 3464.98,8461.02C3464.98,8440.82 3461.28,8421.74 3453.9,8403.76C3446.51,8385.78 3436.16,8370.14 3422.87,8356.84C3409.57,8343.54 3393.93,8332.95 3375.95,8325.07C3357.97,8317.19 3338.39,8313.25 3317.21,8313.25C3297.01,8313.25 3277.93,8317.19 3259.95,8325.07C3241.97,8332.95 3226.33,8343.54 3213.03,8356.84C3199.73,8370.14 3189.14,8385.78 3181.26,8403.76C3173.38,8421.74 3169.44,8440.82 3169.44,8461.02C3169.44,8481.21 3173.38,8500.3 3181.26,8518.28C3189.14,8536.26 3199.73,8551.9 3213.03,8565.2C3226.33,8578.5 3241.97,8589.09 3259.95,8596.97C3277.93,8604.85 3297.01,8608.79 3317.21,8608.79Z" style="fill:white;fill-rule:nonzero;"/>
    </g>
    <g transform="matrix(0.847675,0,0,0.864618,-1102.5,-7296.27)">
        <path d="M1496.65,8994.4L1504.04,8973.2L1549.16,8973.2L1556.7,8994.4L1579.34,8994.4L1540.81,8885.22L1512.39,8885.22L1474.02,8994.4L1496.65,8994.4ZM1526.68,8907.85L1542.73,8953.93L1510.62,8953.93L1526.68,8907.85Z" style="fill:rgb(92,225,230);fill-rule:nonzero;"/>
        <path d="M1608.88,8994.4L1659.62,8994.4C1682.9,8994.4 1696.71,8983.8 1696.71,8965.17C1696.71,8951.05 1688.84,8941.41 1674.55,8937.56C1685.47,8932.9 1691.41,8924.39 1691.41,8912.83C1691.41,8895.49 1677.44,8885.22 1654.8,8885.22L1608.88,8885.22L1608.88,8994.4ZM1657.05,8947.67C1669.09,8947.67 1673.11,8954.09 1673.11,8960.84C1673.11,8967.9 1669.09,8974.49 1657.05,8974.49L1631.68,8974.49L1631.68,8947.67L1657.05,8947.67ZM1631.68,8930.65L1631.68,8905.12L1651.91,8905.12C1663.31,8905.12 1667.81,8911.23 1667.81,8917.81C1667.81,8924.39 1663.15,8930.65 1651.75,8930.65L1631.68,8930.65Z" style="fill:rgb(92,225,230);fill-rule:nonzero;"/>
        <path d="M1781.32,8996C1813.6,8996 1836.08,8971.44 1836.08,8939.81C1836.08,8908.18 1813.6,8883.61 1781.32,8883.61C1749.05,8883.61 1726.57,8908.18 1726.57,8939.81C1726.57,8971.44 1748.89,8996 1781.32,8996ZM1781.32,8975.45C1762.54,8975.45 1750.82,8959.55 1750.82,8939.81C1750.82,8919.9 1762.54,8904.32 1781.32,8904.32C1800.11,8904.32 1811.67,8919.74 1811.67,8939.81C1811.67,8959.55 1799.95,8975.45 1781.32,8975.45Z" style="fill:rgb(92,225,230);fill-rule:nonzero;"/>
        <path d="M1921.33,8996C1940.12,8996 1955.53,8988.94 1965.16,8977.38L1965.16,8935.47L1921.33,8935.47L1921.33,8952.33L1944.61,8952.33L1944.61,8967.74C1940.76,8972.08 1932.09,8975.93 1921.17,8975.93C1898.53,8975.93 1890.02,8957.79 1890.02,8939.65C1890.02,8921.5 1900.14,8904.32 1919.08,8904.32C1932.57,8904.32 1941.56,8913.31 1945.9,8921.02L1965.49,8908.82C1956.98,8894.69 1944.29,8883.61 1919.08,8883.61C1886.33,8883.61 1865.78,8909.46 1865.78,8939.65C1865.78,8969.67 1885.85,8996 1921.33,8996Z" style="fill:rgb(92,225,230);fill-rule:nonzero;"/>
        <path d="M2014.94,8994.4L2022.32,8973.2L2067.44,8973.2L2074.99,8994.4L2097.63,8994.4L2059.09,8885.22L2030.67,8885.22L1992.3,8994.4L2014.94,8994.4ZM2044.96,8907.85L2061.02,8953.93L2028.91,8953.93L2044.96,8907.85Z" style="fill:rgb(92,225,230);fill-rule:nonzero;"/>
        <path d="M2169.24,8994.4C2201.35,8994.4 2222.38,8972.08 2222.38,8939.65C2222.38,8907.05 2201.35,8885.22 2169.24,8885.22L2127.17,8885.22L2127.17,8994.4L2169.24,8994.4ZM2169.24,8905.93C2186.09,8905.93 2197.97,8918.61 2197.97,8939.65C2197.97,8960.52 2186.09,8973.68 2169.24,8973.68L2149.97,8973.68L2149.97,8905.93L2169.24,8905.93Z" style="fill:rgb(92,225,230);fill-rule:nonzero;"/>
        <path d="M2306.99,8996C2339.27,8996 2361.74,8971.44 2361.74,8939.81C2361.74,8908.18 2339.27,8883.61 2306.99,8883.61C2274.72,8883.61 2252.24,8908.18 2252.24,8939.81C2252.24,8971.44 2274.56,8996 2306.99,8996ZM2306.99,8975.45C2288.21,8975.45 2276.49,8959.55 2276.49,8939.81C2276.49,8919.9 2288.21,8904.32 2306.99,8904.32C2325.78,8904.32 2337.34,8919.74 2337.34,8939.81C2337.34,8959.55 2325.62,8975.45 2306.99,8975.45Z" style="fill:rgb(92,225,230);fill-rule:nonzero;"/>
        <path d="M2430.62,8996C2464.82,8996 2473.17,8978.5 2473.17,8964.53C2473.17,8927.76 2415.85,8931.94 2415.85,8915.56C2415.85,8909.62 2423.24,8904.32 2436.73,8904.32C2449.57,8904.32 2460.33,8908.82 2468.03,8912.83L2468.03,8891.96C2462.9,8888.27 2451.5,8883.61 2434.64,8883.61C2407.02,8883.61 2391.77,8895.81 2391.77,8915.24C2391.77,8952.65 2449.09,8947.83 2449.09,8965.33C2449.09,8971.92 2440.74,8975.13 2429.82,8975.13C2415.69,8975.13 2400.92,8969.99 2393.22,8966.14L2393.22,8989.1C2401.08,8992.31 2415.05,8996 2430.62,8996Z" style="fill:rgb(92,225,230);fill-rule:nonzero;"/>
    </g>
    <g transform="matrix(1.04273,0,0,1.04273,-1338.55,-8887.05)">
        <circle cx="1336.04" cy="8938.34" r="52.353" style="fill:rgb(92,225,230);"/>
    </g>
</svg>
